<svg width="40" height="40" xmlns="http://www.w3.org/2000/svg" fill="#ffffff">
 <g>
  <title>Layer 1</title>
  <path stroke="null" fill-rule="evenodd" d="m18.54555,12.00409c0.83499,0.9039 0.57024,1.92793 -0.16805,2.89958c-0.17505,0.23037 -0.37681,0.45734 -0.6205,0.70746c-0.11696,0.12006 -0.20816,0.21034 -0.39894,0.39684c-0.43326,0.42353 -0.79746,0.77939 -1.09265,1.06764c-0.14314,0.13978 0.83415,2.04696 2.73083,3.90102c1.89563,1.85306 3.84844,2.80814 3.99227,2.66761l1.09189,-1.06692c0.60129,-0.5878 0.91974,-0.87138 1.3573,-1.15174c0.90968,-0.58281 1.90188,-0.74119 2.73871,-0.01044c2.73228,1.90866 4.27845,3.07991 5.03592,3.84853c1.47744,1.49917 1.28381,3.80687 0.00839,5.12334c-0.44228,0.45651 -1.00306,1.00446 -1.66538,1.62802c-4.00646,3.91477 -12.46192,1.53239 -18.94214,-4.80227c-6.48167,-6.33611 -8.91989,-14.59434 -4.92184,-18.50086c0.71777,-0.71197 0.95442,-0.94297 1.65346,-1.61562c1.3015,-1.25237 3.77354,-1.44846 5.27629,0.00124c0.79045,0.76256 2.05063,2.34599 3.92445,4.90656zm7.54921,12.54108l-1.09212,1.06713c-1.85636,1.81389 -5.01778,0.26772 -8.02098,-2.66803c-3.00527,-2.93775 -4.58673,-6.02399 -2.72976,-7.83734c0.29479,-0.28786 0.65865,-0.6434 1.09158,-1.0666c0.17468,-0.17075 0.25458,-0.24985 0.35049,-0.34828c0.13066,-0.13413 0.23803,-0.25191 0.324,-0.35615c-1.66065,-2.25908 -2.78952,-3.67068 -3.3981,-4.25777c-0.31428,-0.30321 -1.01805,-0.24738 -1.2764,0.00124c-0.68906,0.66305 -0.91556,0.88413 -1.63043,1.59318c-2.57114,2.5123 -0.60285,9.17893 4.91473,14.57259c5.51585,5.39196 12.34133,7.31509 14.93203,4.78398c0.65202,-0.61418 1.18336,-1.13335 1.59234,-1.55549c0.29552,-0.30503 0.34833,-0.93445 0.00838,-1.27939c-0.5662,-0.57453 -1.95239,-1.63003 -4.34591,-3.30861c-0.17446,0.13714 -0.38894,0.33605 -0.71985,0.65953z" id="svg_1"/>
 </g>

</svg>