<svg width="64" height="64" xmlns="http://www.w3.org/2000/svg" fill="none">
 <g>
  <title>Layer 1</title>
  <text stroke="#ff0000" transform="matrix(0.146813 0 0 0.212783 -11.8045 27.5612)" font-weight="bold" xml:space="preserve" text-anchor="start" font-family="'Public Sans'" font-size="34" stroke-width="0" id="svg_8" y="64.87658" x="389.59992" fill="#191919">Click to Talk</text>
  <g id="svg_28">
   <path stroke="#ff0000" id="svg_7" d="m5.61429,5.9999l20.77142,0l0,0c2.72112,0 4.92701,4.64508 4.92701,10.37508c0,5.72999 -2.2059,10.37507 -4.92701,10.37507l-20.77142,0l0,0c-2.72111,0 -4.92701,-4.64508 -4.92701,-10.37507c0,-5.73 2.2059,-10.37508 4.92701,-10.37508z" fill="#e5e5e5"/>
   <path stroke="null" id="svg_1" fill="#E60000" d="m20.67441,15.23717l-1.61996,-1.46461l-3.29265,0c-0.74102,-0.00125 -1.34152,-0.57674 -1.34282,-1.28691l0,-2.95977c0.0013,-0.71079 0.6018,-1.28628 1.34282,-1.28815l6.90663,0l0,4.24792c0,0.67151 -0.53929,1.23016 -1.23864,1.28316l0,2.12489l-0.75538,-0.65653z"/>
   <path stroke="null" id="svg_2" fill="#E60000" d="m22.24306,20.3187c0.06495,0.07794 0.0981,0.17583 0.0916,0.27559c0,0.05548 0.006,0.11472 0.006,0.1833c0.0005,0.3155 -0.0488,0.62849 -0.14573,0.92964c-0.31945,0.9976 -1.21666,2.21966 -2.43133,2.56203c-0.72022,0.20383 -1.46773,0.30614 -2.21851,0.30423c-1.6883,0 -3.53272,-0.4889 -5.57946,-1.47342c-2.01034,-0.9701 -3.64527,-2.52887 -4.66735,-4.45049c-1.50742,-2.84005 -1.90623,-5.27109 -1.22831,-7.439c0.36303,-1.16033 1.64861,-2.01391 2.68955,-2.3213l0.01366,0l0.79112,-0.19952c0.36042,-0.08853 0.73126,0.10227 0.85357,0.43894l0.63368,1.7826l0.98368,2.62993l0.02538,0.06983c0.10604,0.28555 0.00779,0.60479 -0.24398,0.78873c-0.35587,0.26 -0.75403,0.46263 -1.17822,0.59856c-0.44044,0.13156 -0.89391,0.22072 -1.35323,0.2656c0.48143,1.3848 1.29142,2.64365 2.36619,3.67804c1.08844,1.02753 2.40915,1.8013 3.85996,2.25956c0.04815,-0.43333 0.14248,-0.86105 0.28106,-1.27693c0.14119,-0.40713 0.35197,-0.78873 0.62457,-1.12916c0.19388,-0.2444 0.53218,-0.33794 0.83276,-0.23132l2.83332,0.96143c0.20819,0.07172 0.45282,0.14653 0.68572,0.22073c0.46784,0.14651 0.92053,0.26935 1.23814,0.42771c0.08511,0.03741 0.16455,0.08605 0.23617,0.14466z"/>
   <path stroke="null" id="svg_3" fill="#BD0000" d="m22.07967,22.0158c-0.0468,0.11036 -0.10409,0.22321 -0.15939,0.33419c-0.09427,-0.00374 -0.17438,-0.06734 -0.1952,-0.15524c-0.02082,-0.08854 0.02282,-0.17895 0.10676,-0.22136c0.08328,-0.04177 0.18604,-0.02431 0.24983,0.04241l-0.002,0zm-0.15423,-0.92777c-0.11442,0 -0.20686,0.08854 -0.20819,0.19764c-0.00067,0.10974 0.09044,0.19952 0.20502,0.2014c0.11375,0.00187 0.20886,-0.08543 0.21135,-0.19454c0.00133,-0.05362 -0.02015,-0.10599 -0.05913,-0.14464c-0.03914,-0.03804 -0.0931,-0.05986 -0.14906,-0.05986zm0,-0.86293c-0.09943,0.00062 -0.18404,0.06796 -0.20286,0.16148c-0.01899,0.09354 0.03381,0.18643 0.12541,0.2226c0.09177,0.03615 0.19786,0.00498 0.25249,-0.07483c0.05463,-0.07919 0.04364,-0.18455 -0.02731,-0.25127c-0.03897,-0.03741 -0.09244,-0.05861 -0.14773,-0.05799zm-0.90038,1.73272c-0.08461,-0.00249 -0.16272,0.04426 -0.1972,0.11847c-0.03381,0.07481 -0.01815,0.16148 0.04114,0.21947c0.06495,0.06484 0.16772,0.07981 0.24983,0.03615c0.08194,-0.04302 0.12425,-0.13405 0.1021,-0.22134c-0.02215,-0.08729 -0.1021,-0.14964 -0.19586,-0.15275zm0,-1.72398c-0.08461,0.00062 -0.16072,0.04988 -0.19253,0.12533c-0.03131,0.07543 -0.01232,0.16148 0.0488,0.21821c0.06829,0.06049 0.17038,0.06983 0.24983,0.02308c0.07928,-0.04677 0.11709,-0.1378 0.09177,-0.22385c-0.02482,-0.08603 -0.10676,-0.14527 -0.19986,-0.14589l0.002,0.00311zm0,2.58566c-0.08461,0.00062 -0.16072,0.0505 -0.19187,0.12533c-0.03131,0.07545 -0.01249,0.16148 0.0488,0.21815c0.06046,0.05618 0.1509,0.07183 0.22834,0.03879c0.07745,-0.03304 0.12625,-0.1079 0.12291,-0.18962c-0.00133,-0.05235 -0.02415,-0.10286 -0.06379,-0.13963c-0.04031,-0.03679 -0.09427,-0.05612 -0.14956,-0.05488l0.00516,0.00187zm0,-1.72272c-0.08394,-0.00188 -0.16139,0.04551 -0.1952,0.11907c-0.03381,0.07358 -0.01815,0.15962 0.04031,0.21823c0.06579,0.06298 0.16722,0.07545 0.24866,0.03181c0.08061,-0.04366 0.12158,-0.13344 0.1001,-0.22011c-0.02215,-0.08666 -0.10076,-0.149 -0.19387,-0.15275l0,0.00375zm-0.89521,-0.85296c-0.07873,-0.00187 -0.15028,0.04177 -0.18216,0.11036c-0.03123,0.06921 -0.01627,0.14964 0.03902,0.20326c0.05466,0.05363 0.13794,0.07047 0.2108,0.04179c0.07287,-0.02806 0.12035,-0.0954 0.1197,-0.17084c0.00065,-0.1004 -0.08263,-0.18394 -0.18737,-0.18768l0,0.00311zm-0.00651,1.72585c-0.10604,0.00062 -0.19192,0.08354 -0.19127,0.18581c0,0.10163 0.08652,0.18455 0.19258,0.18455c0.10604,0 0.19257,-0.08292 0.19257,-0.18455c0.00065,-0.04988 -0.02017,-0.09727 -0.05724,-0.13157c-0.03644,-0.03491 -0.08589,-0.05486 -0.13729,-0.05486l0.00065,0.00062zm0,0.86105c-0.10604,0 -0.19192,0.08231 -0.19257,0.18397c0,0.10152 0.08522,0.18452 0.19127,0.18515c0.10604,0.00064 0.19323,-0.08109 0.19388,-0.18276c0,-0.04919 -0.01952,-0.09721 -0.05465,-0.13336c-0.03644,-0.03492 -0.08524,-0.05488 -0.13662,-0.05612l-0.00132,0.00311zm0,-3.07946c0.09369,-0.00062 0.17371,-0.06485 0.19193,-0.15277l-0.22836,-0.07606l-0.12881,-0.04177c-0.01497,0.02493 -0.02278,0.05237 -0.02278,0.08105c-0.00065,0.10038 0.08198,0.18268 0.18607,0.18642l0.00195,0.00313zm0.00976,3.94117c-0.10604,-0.00319 -0.19516,0.07662 -0.19843,0.17829c-0.0039,0.10168 0.07873,0.18707 0.18477,0.19074c0.10604,0.00383 0.19518,-0.0747 0.19973,-0.17638c0.00195,-0.04996 -0.01626,-0.09848 -0.05205,-0.13535c-0.03513,-0.03671 -0.08522,-0.05794 -0.13727,-0.05922l0.00325,0.00192zm-0.0065,-2.58256c-0.10604,0 -0.19258,0.0823 -0.19258,0.18393c0,0.10227 0.08587,0.18456 0.19193,0.18519c0.10604,0.00062 0.19257,-0.08168 0.19322,-0.18332c0.00065,-0.10412 -0.08652,-0.18828 -0.19452,-0.18891l0.00195,0.00311zm-0.90043,-0.84983c-0.09823,0.00062 -0.17826,0.0773 -0.17761,0.17208c0,0.09414 0.08003,0.17084 0.17826,0.17084c0.0989,0 0.17891,-0.07607 0.17958,-0.17021c0,-0.09665 -0.08133,-0.17521 -0.18217,-0.17583l0.00195,0.00313zm0,2.5869c-0.09823,0.00125 -0.17761,0.07856 -0.17696,0.17334c0.00716,0.08923 0.08522,0.15834 0.17891,0.15834c0.09304,0 0.17111,-0.06911 0.17828,-0.15834c0,-0.04615 -0.01887,-0.09105 -0.05336,-0.12346c-0.03448,-0.03242 -0.08131,-0.0505 -0.13011,-0.04988l0.00325,0zm0.00716,-0.8623c-0.07222,-0.00251 -0.13922,0.03678 -0.16915,0.09976c-0.02928,0.06421 -0.01497,0.13903 0.03513,0.18954c0.0514,0.04988 0.12946,0.06484 0.19648,0.03802c0.06765,-0.0268 0.11126,-0.08978 0.11061,-0.15962c0.00065,-0.09414 -0.07873,-0.17146 -0.17696,-0.1727l0.0039,0.005zm0,-0.86293c-0.07287,-0.00187 -0.13989,0.03928 -0.16915,0.1035c-0.02928,0.06423 -0.01432,0.13904 0.03707,0.18892c0.0514,0.04988 0.12883,0.06485 0.19583,0.03804c0.07938,-0.03117 0.12491,-0.11223 0.10799,-0.19266c-0.01626,-0.08105 -0.08977,-0.13904 -0.17564,-0.13966l0.0039,0.00187zm0,-1.72274c-0.07222,-0.00311 -0.13922,0.03555 -0.1698,0.09852c-0.02993,0.06298 -0.01757,0.13717 0.03123,0.1883c0.04943,0.0505 0.12621,0.06796 0.19387,0.04302c0.06767,-0.02431 0.11256,-0.08603 0.1145,-0.15524c0.00195,-0.09227 -0.07027,-0.17021 -0.16655,-0.17832l-0.00325,0.00374zm-0.01106,4.30958c-0.09369,0.00686 -0.16655,0.08172 -0.16655,0.17223c0,0.09034 0.07287,0.1652 0.16655,0.17207c0.10018,0 0.18086,-0.07805 0.18086,-0.17334c0,-0.09609 -0.08068,-0.17398 -0.18086,-0.17398l0,0.00303zm-0.89456,0.01006c-0.07743,0.00064 -0.14443,0.05363 -0.15939,0.12721c-0.01497,0.07294 0.02537,0.14653 0.09758,0.17574c0.07157,0.02873 0.15484,0.00575 0.19908,-0.05603c0.04424,-0.06113 0.03774,-0.14413 -0.01626,-0.19824c-0.03058,-0.03256 -0.07418,-0.05124 -0.11972,-0.05188l-0.0013,0.00319zm0,-2.58692c-0.06832,-0.00125 -0.13078,0.03679 -0.15874,0.09727c-0.02733,0.05986 -0.01367,0.13031 0.03383,0.17708c0.04815,0.04675 0.12035,0.06172 0.18412,0.0374c0.06311,-0.02493 0.10474,-0.08354 0.10539,-0.14902c0.0013,-0.04239 -0.01497,-0.08417 -0.04555,-0.11472c-0.02993,-0.0318 -0.07287,-0.04988 -0.11775,-0.04988l-0.0013,0.00187zm0,0.86293c-0.09239,0.00062 -0.1672,0.07294 -0.1672,0.16148c0,0.08916 0.07481,0.16148 0.1672,0.16211c0.09304,0 0.1685,-0.07108 0.1698,-0.15962c0.00195,-0.0449 -0.01561,-0.08854 -0.04878,-0.11971c-0.03319,-0.0318 -0.07808,-0.04864 -0.12491,-0.04615l0.0039,0.00188zm0.00651,-2.58567c-0.06962,-0.00187 -0.13272,0.03804 -0.15941,0.09976c-0.02796,0.05986 -0.01496,0.13031 0.03253,0.1777c0.0475,0.04739 0.11972,0.06235 0.18347,0.03866c0.06376,-0.02431 0.10604,-0.08292 0.10669,-0.1484c0.00195,-0.04364 -0.01496,-0.08541 -0.04618,-0.1166c-0.03123,-0.0318 -0.07417,-0.04988 -0.11907,-0.04988l0.00197,-0.00125zm0,0.86107c-0.06832,-0.00188 -0.13143,0.03678 -0.15876,0.09663c-0.02731,0.05986 -0.01431,0.13031 0.03318,0.17708c0.04815,0.04739 0.12037,0.06235 0.18412,0.03741c0.06376,-0.02433 0.10539,-0.08292 0.10604,-0.1484c0.00197,-0.04364 -0.01431,-0.08605 -0.04618,-0.11784c-0.03188,-0.0318 -0.07546,-0.04988 -0.12167,-0.04988l0.00326,0.005zm0,2.5869c-0.06832,-0.00062 -0.13013,0.03804 -0.15681,0.09852c-0.02602,0.06054 -0.01236,0.12966 0.03579,0.17642c0.04748,0.04677 0.12035,0.06049 0.18347,0.03623c0.06311,-0.02554 0.10409,-0.08492 0.10409,-0.151c-0.00067,-0.04295 -0.01887,-0.08348 -0.0514,-0.11341c-0.03188,-0.02993 -0.07548,-0.04615 -0.12037,-0.0449l0.00521,-0.00187zm-0.90367,0.01371c-0.08589,0 -0.15614,0.06672 -0.15614,0.14966c0,0.08284 0.07025,0.14956 0.15614,0.14956c0.08457,-0.00048 0.15353,-0.06544 0.15549,-0.14653c0.00195,-0.04233 -0.01432,-0.08348 -0.0462,-0.11278c-0.03188,-0.02931 -0.07481,-0.04364 -0.1184,-0.04115l0.00911,0.00125zm0.00715,-2.58752c-0.06311,-0.00187 -0.121,0.03304 -0.14768,0.08854c-0.02537,0.05548 -0.01301,0.12033 0.03058,0.16397c0.04359,0.04366 0.11061,0.05737 0.16915,0.03555c0.06962,-0.02682 0.10996,-0.09727 0.09565,-0.16835c-0.01432,-0.07045 -0.07873,-0.12158 -0.15354,-0.1222l0.00585,0.00249zm-0.00909,-0.86916c-0.06312,-0.00062 -0.12037,0.03491 -0.14573,0.09103c-0.02408,0.0555 -0.01108,0.11971 0.03318,0.16211c0.06311,0.05175 0.15614,0.04739 0.21403,-0.00873c0.05791,-0.05673 0.06051,-0.14651 0.00586,-0.20575c-0.02993,-0.02744 -0.07092,-0.04241 -0.11256,-0.04053l0.00521,0.00187zm0.01431,4.31089c-0.08457,-0.00559 -0.15809,0.05618 -0.16395,0.13711c-0.0065,0.08172 0.05726,0.15275 0.14183,0.15898c0.08522,0.00686 0.15939,-0.05347 0.1672,-0.13456c0.0052,-0.04182 -0.00846,-0.08364 -0.03774,-0.11476c-0.02796,-0.03176 -0.0696,-0.05044 -0.1132,-0.04996l0.00586,0.00319zm-0.01106,-1.71712c-0.04164,0 -0.08133,0.01558 -0.11061,0.04302c-0.02928,0.02806 -0.04554,0.0661 -0.04554,0.10538c0.00195,0.06733 0.05075,0.12469 0.1184,0.14029c0.06767,0.0162 0.13859,-0.01247 0.17306,-0.07045c0.03448,-0.05861 0.02472,-0.13156 -0.02407,-0.17957c-0.03123,-0.02931 -0.07418,-0.0449 -0.11777,-0.04241l0.00651,0.00375zm-0.15419,-3.31204c-0.0039,0.0823 0.06116,0.15275 0.14703,0.15837c0.04099,0.00249 0.08198,-0.0106 0.1132,-0.03741c0.03058,-0.02619 0.04945,-0.06359 0.05205,-0.10287c0.00325,-0.0131 0.00325,-0.02682 0,-0.0399l-0.24593,-0.08294c-0.03902,0.02057 -0.06505,0.05737 -0.07155,0.09976l0.0052,0.005zm0.15614,2.44911c-0.08652,0 -0.15614,0.06672 -0.15614,0.14964c0,0.08294 0.06962,0.14964 0.15614,0.14964c0.08652,0 0.15614,-0.0667 0.15614,-0.14964c0,-0.08292 -0.06962,-0.14964 -0.15614,-0.14964zm-0.75989,0.15152c0.00195,-0.07483 -0.05986,-0.13655 -0.13792,-0.13842c-0.07743,-0.00188 -0.14248,0.05673 -0.14508,0.13156c-0.0026,0.07419 0.05854,0.13717 0.13597,0.13966c0.03774,0.00062 0.07417,-0.01309 0.10085,-0.03866c0.02666,-0.02495 0.04164,-0.05986 0.04099,-0.09603l0.0052,0.00188zm-0.14378,0.72139c-0.05789,-0.00187 -0.11124,0.03055 -0.13467,0.0823c-0.02342,0.05113 -0.01171,0.11036 0.02928,0.15026c0.04034,0.0399 0.1028,0.05175 0.15614,0.02993c0.054,-0.0212 0.08849,-0.0717 0.08784,-0.12782c0,-0.03553 -0.01367,-0.06921 -0.03969,-0.09476c-0.02538,-0.02682 -0.06116,-0.04239 -0.0989,-0.04302l0,0.00311zm0,-3.17737c0.03709,-0.00062 0.07287,-0.01496 0.0989,-0.0399c0.02666,-0.0268 0.04034,-0.06297 0.03837,-0.09976c0,-0.03242 -0.01236,-0.06359 -0.03513,-0.0879c-0.08003,0.04675 -0.15093,0.10661 -0.20819,0.17768c0.02668,0.02993 0.06505,0.04677 0.10604,0.04677l0,0.00311zm0,4.90128c-0.05789,-0.00176 -0.11124,0.03065 -0.13402,0.08172c-0.02277,0.0506 -0.01171,0.10918 0.02798,0.14844c0.05465,0.05555 0.14573,0.0573 0.20299,0.00495c0.05724,-0.05235 0.05984,-0.13903 0.0052,-0.19457c-0.02602,-0.02745 -0.06311,-0.04358 -0.10215,-0.04358l0,0.00303zm-0.01041,-4.03834c0.05791,0.00187 0.11061,-0.02993 0.13467,-0.07981c0.02473,-0.04988 0.01497,-0.10974 -0.02472,-0.15026c-0.03904,-0.04053 -0.1002,-0.05425 -0.15419,-0.0343c-0.054,0.01995 -0.08979,0.06921 -0.09109,0.12471c-0.0026,0.03679 0.01106,0.07294 0.03774,0.09976c0.02666,0.02744 0.06441,0.04239 0.10409,0.04177l-0.00651,-0.00187zm0,0.58983c-0.07806,0.00062 -0.13987,0.06235 -0.13922,0.13655c0.00065,0.07481 0.06441,0.13467 0.14182,0.13467c0.07808,-0.00062 0.14119,-0.0611 0.14119,-0.13591c0.0026,-0.03679 -0.01171,-0.07358 -0.03969,-0.09976c-0.02731,-0.02682 -0.06505,-0.04117 -0.10409,-0.0399l0,0.00436zm0.00846,2.58752c-0.05724,-0.00311 -0.11061,0.02806 -0.13402,0.07794c-0.02407,0.04993 -0.01431,0.10915 0.02473,0.14905c0.03967,0.04054 0.10018,0.05427 0.15418,0.03432c0.05401,-0.01931 0.08979,-0.06864 0.09044,-0.12354c0.00195,-0.0355 -0.01171,-0.0698 -0.03642,-0.09598c-0.02538,-0.02557 -0.05986,-0.04054 -0.09695,-0.04179l-0.00195,0zm-0.7755,-0.73012c-0.00132,-0.06859 -0.05986,-0.12345 -0.13143,-0.12282c-0.07157,0 -0.13013,0.05611 -0.13013,0.12469c0,0.06859 0.05856,0.12471 0.13013,0.12471c0.03578,0.00187 0.07027,-0.01122 0.09628,-0.03492c0.02473,-0.02431 0.03839,-0.05735 0.03709,-0.09165l-0.00195,0zm-0.12491,0.74009c-0.05271,-0.00187 -0.1015,0.02744 -0.12361,0.07358c-0.02147,0.0467 -0.01171,0.10097 0.02537,0.13721c0.03644,0.03671 0.09304,0.04852 0.14183,0.02985c0.05659,-0.02171 0.09042,-0.07725 0.08133,-0.13526c-0.00976,-0.05737 -0.05921,-0.10101 -0.11972,-0.10538l-0.0052,0zm0.12491,-2.46408c0,-0.04675 -0.02863,-0.08916 -0.07287,-0.10849c-0.01887,0.07856 -0.03969,0.1565 -0.05726,0.23444c0.03578,0.00187 0.07157,-0.0106 0.09693,-0.03492c0.02538,-0.02431 0.03904,-0.05673 0.03839,-0.09103l-0.0052,0zm-0.12491,0.73636c-0.05271,0.00062 -0.1002,0.03117 -0.12102,0.07794c-0.01887,0.04677 -0.00716,0.10101 0.03123,0.13593c0.03774,0.03553 0.09433,0.04551 0.14313,0.02555c0.04813,-0.02182 0.07871,-0.06859 0.07676,-0.11971c0,-0.03304 -0.01366,-0.06484 -0.03839,-0.08792c-0.02407,-0.02306 -0.05724,-0.03553 -0.09172,-0.03491l0,0.00311zm0,2.58559c-0.05271,-0.00048 -0.1015,0.02937 -0.12232,0.0755c-0.02017,0.04677 -0.00976,0.10104 0.02731,0.13711c0.03774,0.03623 0.09433,0.04677 0.14313,0.02745c0.04945,-0.01995 0.08068,-0.06608 0.08003,-0.11716c-0.00521,-0.06305 -0.05921,-0.11221 -0.12491,-0.11476l-0.00325,-0.00814zm-0.90043,-1.7077c-0.06246,-0.00062 -0.1132,0.04739 -0.1145,0.10725c-0.00065,0.05923 0.0488,0.10911 0.11126,0.11036c0.06246,0.00125 0.11385,-0.04615 0.1158,-0.106c0.0013,-0.02931 -0.01041,-0.05797 -0.03123,-0.07856c-0.02147,-0.0212 -0.05075,-0.03304 -0.08133,-0.03304zm0,1.72398c-0.05856,0.00495 -0.10344,0.05235 -0.10344,0.10918c0,0.05666 0.04489,0.10343 0.10344,0.10902c0.06311,0 0.1145,-0.04916 0.1145,-0.10966c-0.0039,-0.05746 -0.05465,-0.10168 -0.1145,-0.09976l0,-0.00878zm0,-2.58503c-0.054,0.00311 -0.09823,0.04239 -0.10539,0.09352c-0.00781,0.05113 0.02342,0.10038 0.07417,0.11722c0.05075,0.01746 0.10734,-0.00187 0.13532,-0.04615c0.02212,-0.03553 0.02212,-0.07919 0,-0.11472c-0.02147,-0.03492 -0.06181,-0.0555 -0.10409,-0.05299l0,0.00311zm0,1.72274c-0.04554,0.00062 -0.08652,0.02742 -0.10409,0.06795c-0.02147,0.04431 -0.00976,0.09666 0.02863,0.12843c0.03837,0.0324 0.09433,0.03623 0.13727,0.01006c0.04294,-0.02618 0.06246,-0.07678 0.04815,-0.12351c-0.01432,-0.04677 -0.05921,-0.07856 -0.10996,-0.07856l0,-0.00436zm-0.89846,-1.70654c-0.02538,-0.00062 -0.0501,0.00998 -0.06767,0.02744c-0.01822,0.01746 -0.02861,0.04115 -0.02796,0.0661c0.00065,0.04926 0.04164,0.08854 0.09237,0.08978c0.03644,0.00311 0.07157,-0.01373 0.09109,-0.04366c0.02082,-0.03055 0.02082,-0.06983 0,-0.09976c-0.01952,-0.02993 -0.05465,-0.04675 -0.09109,-0.04302l0.00326,0.00311zm0,2.58559c-0.03969,0.00319 -0.07352,0.02745 -0.08849,0.06305l0.17891,0.06353c0.00456,-0.01117 0.00651,-0.02298 0.00651,-0.0348c-0.00651,-0.0506 -0.0514,-0.08795 -0.10409,-0.08795l0.00716,-0.00383zm0,-0.86099c-0.0501,-0.00062 -0.09239,0.03679 -0.09563,0.08477c-0.00132,0.0249 0.00779,0.04996 0.02472,0.06864c0.01757,0.01931 0.04164,0.03049 0.06765,0.03113c0.02668,0.00192 0.05271,-0.00623 0.07222,-0.02298c0.01887,-0.01756 0.03058,-0.04118 0.03188,-0.06672c0.00065,-0.02562 -0.01041,-0.04993 -0.02991,-0.06677c-0.01887,-0.01808 -0.04425,-0.02744 -0.07092,-0.02618l0,-0.00188zm0,-0.86292c-0.02473,-0.00062 -0.04815,0.00811 -0.06637,0.02369c-0.0182,0.01622 -0.02926,0.03866 -0.02926,0.06235c-0.00326,0.02495 0.0052,0.04988 0.02277,0.06859c0.01755,0.01871 0.04164,0.02993 0.06765,0.03117c0.05335,0 0.09825,-0.03802 0.10409,-0.08915c-0.00325,-0.05052 -0.04489,-0.09042 -0.09758,-0.09354l-0.0013,-0.00311zm0,-1.5413c0.01431,0.00062 0.02928,-0.00249 0.04164,-0.00873l-0.13013,-0.06983c0.00456,0.04303 0.03904,0.07732 0.08328,0.08356l0.00521,-0.005zm-0.89716,2.43915c-0.02082,0.02182 -0.05726,0.0399 -0.06051,0.06358c-0.00326,0.02426 0.02928,0.04421 0.05919,0.08109c0.02928,-0.03799 0.06051,-0.06177 0.05856,-0.083c-0.00195,-0.02051 -0.03642,-0.04482 -0.05724,-0.06166zm-0.06442,-0.80495c0.02082,0.02057 0.03839,0.05488 0.06442,0.05986c0.02602,0.005 0.04554,-0.02806 0.08652,-0.05611c-0.03969,-0.02806 -0.0657,-0.05861 -0.08652,-0.05674c-0.02082,0.00187 -0.0449,0.02993 -0.06442,0.04864l0,0.00436zm0.06832,-1.661c0.01887,-0.0212 0.05205,-0.04115 0.05335,-0.06423c0.0013,-0.02244 -0.03253,-0.04364 -0.06376,-0.08043c-0.02668,0.0399 -0.05921,0.06672 -0.054,0.0848c0.0052,0.01807 0.04164,0.0318 0.06441,0.05548l0,0.00437zm-0.06832,0.79808c0.02082,0.02057 0.03839,0.05362 0.06442,0.05986c0.02602,0.0056 0.04554,-0.02931 0.08652,-0.05612c-0.03969,-0.02806 -0.0657,-0.05861 -0.08652,-0.05674c-0.02082,0.00188 -0.0449,0.03181 -0.06442,0.04988l0,0.00313z"/>
   <path stroke="null" id="svg_4" fill="#BD0000" d="m22.26571,11.03032c0.08527,0.00562 0.14973,0.07545 0.1444,0.15713c-0.00516,0.08168 -0.07795,0.14342 -0.16322,0.13966c-0.08461,-0.00436 -0.15023,-0.07357 -0.1464,-0.15524c0.00067,-0.04053 0.01949,-0.07856 0.0508,-0.10538c0.03115,-0.02682 0.07278,-0.0399 0.11442,-0.03617zm-0.01099,2.01891c0.04164,0.00062 0.08261,-0.01497 0.11192,-0.04366c0.02915,-0.02867 0.04547,-0.06795 0.04414,-0.10785c-0.00183,-0.08169 -0.07212,-0.14653 -0.15672,-0.14591c-0.08527,0.00125 -0.15356,0.06734 -0.15356,0.14902c0,0.08168 0.06895,0.14777 0.15423,0.1484zm0,-0.86169c0.08461,-0.00125 0.15289,-0.06795 0.15289,-0.14964c-0.00067,-0.08168 -0.06962,-0.14776 -0.15489,-0.14776c-0.08461,-0.00062 -0.15423,0.06484 -0.15539,0.14651c-0.002,0.04115 0.01416,0.08168 0.0448,0.11036c0.03065,0.02931 0.07228,0.0449 0.11509,0.04241l-0.0025,-0.00188zm-0.90171,-1.73208c0.05729,0.00249 0.11059,-0.02868 0.13457,-0.07856c0.02415,-0.0505 0.01432,-0.10911 -0.02532,-0.14964c-0.03897,-0.04053 -0.0996,-0.05362 -0.15356,-0.03429c-0.05396,0.01995 -0.08977,0.06857 -0.0911,0.12407c-0.00183,0.03555 0.01183,0.07045 0.03714,0.09665c0.02532,0.02555 0.06112,0.04115 0.09827,0.04177zm0,-1.72398c0.05729,0.00249 0.11059,-0.02868 0.13457,-0.07856c0.02415,-0.0505 0.01432,-0.10911 -0.02532,-0.14964c-0.03897,-0.0399 -0.0996,-0.05362 -0.15356,-0.03366c-0.05396,0.01933 -0.08977,0.06796 -0.0911,0.12345c-0.00133,0.07294 0.05929,0.1328 0.13541,0.13468l0,0.00374zm0,0.8623c0.05729,0.00126 0.10992,-0.03117 0.13274,-0.08168c0.02332,-0.0505 0.01166,-0.10974 -0.02865,-0.14902c-0.03981,-0.03928 -0.10093,-0.05175 -0.15423,-0.03055c-0.0533,0.02057 -0.08844,0.07045 -0.08844,0.12533c0.00067,0.07294 0.06246,0.13156 0.13857,0.13156l0,0.00436zm0.90421,0.87478c0.08527,-0.00125 0.15356,-0.06796 0.15356,-0.14964c-0.00067,-0.08168 -0.07028,-0.14777 -0.15539,-0.14777c-0.08527,0 -0.15423,0.0661 -0.15489,0.14777c0,0.03928 0.01632,0.07732 0.04613,0.10476c0.02998,0.02742 0.06962,0.04239 0.11059,0.04053l0,0.00436zm-3.60225,3.20542c-0.02472,0 -0.04813,0.00935 -0.06505,0.02557c-0.01757,0.01684 -0.02666,0.03928 -0.02666,0.06297c0,0 0,0.00686 0,0.00998l0.18737,0c0,0 0,-0.00623 0,-0.00873c-0.00132,-0.04988 -0.0436,-0.08978 -0.09565,-0.08978zm-0.89456,0.03368c-0.02277,0 -0.04359,0.03366 -0.06441,0.05299l0.01041,0.01184l0.13013,0l0.01041,-0.00685c-0.03969,-0.02931 -0.06441,-0.05923 -0.08654,-0.05799zm3.59128,-2.39425c0.07878,0.00249 0.14373,-0.05674 0.14573,-0.13156c0.00266,-0.07483 -0.05929,-0.1378 -0.13724,-0.13966c-0.07811,-0.00188 -0.14323,0.05735 -0.14507,0.13218c-0.002,0.07481 0.05979,0.13717 0.1379,0.13904l-0.00133,0zm0,2.31568c-0.07811,0 -0.14124,0.06048 -0.14124,0.13531c0,0.07481 0.06312,0.13591 0.14124,0.13591c0.02598,-0.00062 0.0508,-0.00811 0.07228,-0.02182l0,-0.10974c0.02265,0 0.0448,0 0.06629,-0.00811c0,-0.07294 -0.06112,-0.13156 -0.13724,-0.13156l-0.00133,0zm-0.13924,0.9976c-0.002,0.03679 0.01166,0.07232 0.03831,0.09914c0.02681,0.02619 0.06379,0.04115 0.10226,0.04053c0.02665,-0.00062 0.05263,-0.00811 0.07478,-0.0212l0,-0.23256c-0.02149,-0.01373 -0.0468,-0.02184 -0.07295,-0.02184c-0.03697,-0.00062 -0.07212,0.0131 -0.09876,0.03804c-0.02615,0.02433 -0.04097,0.05799 -0.04164,0.09354l-0.002,0.00436zm1.04094,-5.88585c0.06312,0.00062 0.12042,-0.03555 0.14507,-0.09103c0.02415,-0.0555 0.01166,-0.11971 -0.03314,-0.16273c-0.0443,-0.04303 -0.11126,-0.0555 -0.16922,-0.03243c-0.05846,0.02308 -0.09627,0.07794 -0.0956,0.13842c-0.00067,0.03928 0.01499,0.0767 0.0443,0.10476c0.02865,0.02742 0.06762,0.04302 0.10859,0.04302zm0,0.86167c0.08527,-0.00062 0.15423,-0.0667 0.15423,-0.1484c0,-0.08168 -0.06895,-0.14838 -0.15423,-0.149c-0.08527,-0.00064 -0.15489,0.06484 -0.15606,0.14651c-0.00133,0.04115 0.01482,0.08043 0.0448,0.10911c0.03065,0.02868 0.07228,0.04366 0.11459,0.04177l-0.00333,0zm-4.49298,3.23909c-0.02147,0.0212 -0.05594,0.0399 -0.05984,0.06421c-0.00456,0.0237 0.02993,0.04366 0.05919,0.08169c0.02928,-0.03928 0.06051,-0.06298 0.05791,-0.08418c-0.00195,-0.02057 -0.03644,-0.04053 -0.05726,-0.06172zm0.89456,-4.15876c0.02538,0.00062 0.0501,-0.00811 0.06832,-0.02493c0.01887,-0.01684 0.02993,-0.0399 0.03058,-0.06423c0,-0.0505 -0.04294,-0.09227 -0.09563,-0.09352c-0.05335,0.00062 -0.09565,0.04239 -0.09498,0.0929c-0.00067,0.04864 0.04032,0.08916 0.09172,0.08978zm0,2.40422c-0.02666,0.00062 -0.0514,0.01184 -0.06895,0.03055c-0.01757,0.01871 -0.02603,0.04366 -0.02408,0.06921c0.00065,0.04864 0.04295,0.08792 0.09369,0.08792c0.05336,0 0.0963,-0.04115 0.09695,-0.09227c0.00065,-0.02495 -0.00911,-0.04926 -0.02733,-0.06672c-0.01822,-0.01808 -0.04294,-0.02868 -0.06962,-0.02868l-0.00065,0zm0,-1.72398c-0.02472,-0.00125 -0.04878,0.00749 -0.06635,0.02308c-0.01822,0.0162 -0.02863,0.03802 -0.02928,0.06172c-0.00195,0.02493 0.00651,0.04926 0.02342,0.06796c0.01692,0.01871 0.04099,0.03055 0.06702,0.0318c0.05335,0 0.09888,-0.03866 0.10409,-0.08978c0.00065,-0.02495 -0.00911,-0.04864 -0.02668,-0.06672c-0.01755,-0.01746 -0.04229,-0.02806 -0.0683,-0.02806l-0.00391,0zm0,0.86169c-0.02472,-0.00062 -0.04813,0.00811 -0.06635,0.02431c-0.01757,0.01622 -0.02798,0.03804 -0.02863,0.06172c-0.00195,0.02495 0.00651,0.04988 0.02342,0.06859c0.01757,0.01871 0.0423,0.02993 0.06832,0.03117c0.0514,-0.00249 0.09369,-0.04053 0.0989,-0.08978c0.00195,-0.05113 -0.03969,-0.09352 -0.09239,-0.09601l-0.00326,0zm0.89913,2.7858c0.04618,0 0.08782,-0.02619 0.10604,-0.06672c0.01757,-0.04115 0.00781,-0.08792 -0.02472,-0.11909c-0.03254,-0.03117 -0.08133,-0.04053 -0.12426,-0.02369c-0.04229,0.01746 -0.06962,0.05737 -0.06962,0.10163c-0.00065,0.02931 0.01171,0.05737 0.03383,0.07794c0.02147,0.01995 0.0514,0.03117 0.08198,0.02993l-0.00325,0zm0,0.86167c0.04618,0.00062 0.08782,-0.02618 0.10604,-0.0667c0.01757,-0.04053 0.00781,-0.08792 -0.02472,-0.11909c-0.03254,-0.03117 -0.08133,-0.04053 -0.12426,-0.02308c-0.04229,0.01684 -0.06962,0.05674 -0.06962,0.10102c-0.0026,0.02993 0.00911,0.05922 0.03123,0.08043c0.02277,0.02057 0.05335,0.03055 0.08457,0.02742l-0.00325,0zm-0.89586,-1.06119c-0.05335,-0.00062 -0.09695,0.0399 -0.09825,0.09041c-0.00195,0.04864 0.03774,0.08978 0.08849,0.09165c0.02602,0.00187 0.0514,-0.00623 0.07092,-0.02244c0.0195,-0.01622 0.03188,-0.03928 0.03318,-0.06423c-0.0013,-0.04924 -0.04034,-0.08978 -0.09174,-0.09539l-0.0026,0zm-0.84057,-0.76753c-0.02082,-0.02057 -0.03904,-0.05488 -0.06441,-0.05986c-0.02473,-0.005 -0.04555,0.02806 -0.08654,0.05612c0.03969,0.02804 0.06507,0.0586 0.08654,0.05673c0.02212,-0.00187 0.04683,-0.03366 0.06765,-0.05299l-0.00325,0zm0.83795,0.08792c0.05336,-0.00125 0.095,-0.04303 0.09369,-0.09354c0,-0.04926 -0.04099,-0.08916 -0.09237,-0.08916c-0.03644,-0.00374 -0.07157,0.0131 -0.09109,0.04303c-0.01952,0.02931 -0.01952,0.06734 0,0.09727c0.01952,0.02929 0.05465,0.04613 0.09109,0.04239l-0.00132,0zm-0.95832,-0.94959c0,0.02057 0.02993,0.04364 0.06051,0.08043c0.02798,-0.03866 0.06116,-0.06547 0.05596,-0.08356c-0.00521,-0.01808 -0.04034,-0.04115 -0.06377,-0.0611c-0.01561,0.0212 -0.04878,0.04239 -0.04943,0.06423l-0.00326,0zm3.51381,0.84858c-0.00383,0.05548 0.02731,0.10723 0.07878,0.13156c0.0513,0.02431 0.11325,0.01684 0.15606,-0.01995c0.04364,-0.03617 0.05929,-0.09416 0.04047,-0.14591c-0.01899,-0.05237 -0.06912,-0.08792 -0.12625,-0.09103c-0.03647,-0.00187 -0.07295,0.00998 -0.10026,0.03366c-0.02731,0.0237 -0.04364,0.05674 -0.04547,0.09167l-0.00333,0zm-3.45071,-1.77449c-0.02147,0.0212 -0.05594,0.03866 -0.05984,0.06359c-0.00456,0.02495 0.02993,0.04303 0.05919,0.08105c0.02928,-0.03866 0.06051,-0.06297 0.05791,-0.08354c-0.00195,-0.0212 -0.03644,-0.04115 -0.05726,-0.0611zm0,-1.60801c0.01887,0 0.0462,-0.02806 0.08654,-0.05612c-0.03969,-0.02806 -0.06441,-0.05799 -0.08654,-0.05674c-0.02147,0.00125 -0.04359,0.03368 -0.06441,0.05301c0.02082,0.02057 0.03969,0.05486 0.06441,0.05986zm0,0.86167c0.01887,0 0.0462,-0.02806 0.08654,-0.0555c-0.03969,-0.02804 -0.06441,-0.05797 -0.08654,-0.05611c-0.02147,0.00187 -0.04359,0.03304 -0.06441,0.05175c0.02082,0.02182 0.03969,0.05488 0.06441,0.05986zm1.80018,2.64178c0.04294,0.00249 0.08393,-0.01808 0.10539,-0.05363c0.02149,-0.03615 0.02017,-0.08043 -0.00325,-0.11472c-0.02407,-0.0343 -0.0657,-0.05299 -0.10864,-0.04801c-0.03058,-0.00187 -0.06051,0.00935 -0.08133,0.03117c-0.02082,0.0212 -0.03123,0.0505 -0.02798,0.07919c0,0.02931 0.01236,0.05674 0.03449,0.0767c0.02147,0.01995 0.05073,0.03055 0.08131,0.02931zm0.89326,1.4964c-0.07157,0.00187 -0.12881,0.05861 -0.12751,0.1272c0.0013,0.06857 0.06051,0.12282 0.13208,0.1222c0.07155,-0.00125 0.12881,-0.05737 0.12816,-0.12595c0.0026,-0.03491 -0.01041,-0.06859 -0.03579,-0.09414c-0.02537,-0.02495 -0.06049,-0.03866 -0.09693,-0.03741l0,0.00811zm0,-4.92442c0.07157,-0.00062 0.12883,-0.05737 0.12751,-0.12594c-0.00065,-0.06859 -0.05919,-0.12409 -0.13141,-0.12346c-0.07157,0.00125 -0.12883,0.05737 -0.12883,0.12595c0.00197,0.03304 0.01757,0.06359 0.0436,0.08541c0.02602,0.02184 0.05984,0.03306 0.09433,0.03055l-0.00521,0.00749zm0,1.72523c0.07157,0.00125 0.13013,-0.05362 0.13208,-0.1222c0.0013,-0.06859 -0.05529,-0.12533 -0.12686,-0.1272c-0.07157,-0.00187 -0.13143,0.05175 -0.13337,0.12033c0.0013,0.06734 0.05854,0.12158 0.12881,0.12096l-0.00065,0.00811zm0,-0.8623c0.07157,0.00187 0.13078,-0.05239 0.13272,-0.12096c0.00195,-0.06859 -0.05465,-0.12595 -0.12621,-0.12782c-0.07157,-0.00249 -0.13143,0.05175 -0.13402,0.12033c0.00195,0.06796 0.06051,0.12158 0.13143,0.12096l-0.00391,0.00749zm0.89916,3.4517c0.05729,0.00249 0.11059,-0.02868 0.13457,-0.07856c0.02415,-0.04988 0.01432,-0.10911 -0.02532,-0.14964c-0.03897,-0.0399 -0.0996,-0.05363 -0.15356,-0.03368c-0.05396,0.01933 -0.08977,0.06859 -0.0911,0.12346c-0.00183,0.03553 0.01183,0.07045 0.03714,0.09663c0.02532,0.02619 0.06112,0.04117 0.09827,0.04179zm-0.89525,1.46397c-0.07157,-0.00062 -0.13013,0.05425 -0.13143,0.12284c-0.00065,0.06859 0.05659,0.12531 0.12816,0.12656c0.07157,0.00126 0.13078,-0.05362 0.13208,-0.1222c0.00195,-0.03304 -0.01106,-0.06608 -0.03579,-0.09041c-0.02407,-0.02369 -0.05789,-0.03741 -0.09302,-0.03679zm-0.90043,-5.80229c0.04294,0.00374 0.08457,-0.01559 0.10734,-0.05113c0.02278,-0.03492 0.02278,-0.07919 0,-0.11473c-0.02277,-0.03491 -0.06441,-0.05486 -0.10734,-0.0505c-0.05791,0.005 -0.1028,0.05237 -0.1028,0.10787c0,0.05612 0.04489,0.10287 0.1028,0.10849zm0,2.5869c0.04294,0.00374 0.08457,-0.01558 0.10734,-0.05113c0.02278,-0.03492 0.02278,-0.07919 0,-0.11473c-0.02277,-0.03491 -0.06441,-0.05486 -0.10734,-0.0505c-0.05791,0.005 -0.1028,0.05176 -0.1028,0.10787c0,0.05612 0.04489,0.10289 0.1028,0.10849zm0,-1.72523c0.06181,0 0.11256,-0.04801 0.11256,-0.10725c0,-0.05986 -0.05075,-0.10785 -0.11256,-0.10785c-0.06181,0 -0.11256,0.048 -0.11256,0.10785c0,0.05923 0.05075,0.10725 0.11256,0.10725zm0.90172,1.74082c0.07157,0 0.12946,-0.0555 0.13011,-0.12409c0,-0.06859 -0.05789,-0.12469 -0.12946,-0.12531c-0.07222,0 -0.13078,0.05548 -0.13078,0.12407c-0.0013,0.03304 0.01171,0.06547 0.03579,0.08916c0.02407,0.02369 0.05724,0.03679 0.09172,0.03617l0.00261,0zm-0.89978,-0.87789c0.04294,0.00436 0.08457,-0.01559 0.10736,-0.0505c0.02277,-0.03555 0.02277,-0.07981 0,-0.11473c-0.02278,-0.03553 -0.06442,-0.05486 -0.10736,-0.05113c-0.05789,0.00562 -0.1028,0.05237 -0.1028,0.10849c0,0.05612 0.0449,0.10287 0.1028,0.10787zm0.89716,2.60186c0.04945,0.00437 0.09695,-0.01807 0.12232,-0.0586c0.02603,-0.0399 0.02603,-0.09105 0,-0.13095c-0.02537,-0.04053 -0.07287,-0.06297 -0.12232,-0.0586c-0.067,0.0056 -0.1184,0.05923 -0.1184,0.12407c0,0.06485 0.0514,0.11847 0.1184,0.12407zm0,-0.86167c0.07222,-0.00062 0.12948,-0.05674 0.12948,-0.12531c-0.00065,-0.06921 -0.05856,-0.12409 -0.13078,-0.12409c-0.07157,0 -0.12946,0.05612 -0.12946,0.12471c-0.00065,0.03366 0.01301,0.06608 0.03839,0.08916c0.02472,0.02369 0.05854,0.03678 0.09369,0.03553l-0.00132,0z"/>
   <path stroke="null" id="svg_5" fill="white" d="m20.44539,10.56657l-3.8027,0c-0.22966,0 -0.41638,-0.17895 -0.41638,-0.39904c0,-0.22072 0.18672,-0.39904 0.41638,-0.39904l3.8027,0c0.22966,0 0.41638,0.17832 0.41638,0.39904c0,0.22009 -0.18672,0.39904 -0.41638,0.39904z"/>
   <path stroke="null" id="svg_6" fill="white" d="m20.44539,12.14029l-3.8027,0c-0.22966,0 -0.41638,-0.17832 -0.41638,-0.39904c0,-0.22009 0.18672,-0.39904 0.41638,-0.39904l3.8027,0c0.22966,0 0.41638,0.17895 0.41638,0.39904c0,0.22072 -0.18672,0.39904 -0.41638,0.39904z"/>
  </g>
 </g>

</svg>