<svg width="40" height="40" xmlns="http://www.w3.org/2000/svg" fill="#ffffff">
 <g>
  <title>Layer 1</title>
  <path stroke="null" id="svg_1" d="m20.04791,21.85372c1.51655,1.18399 2.83863,1.77207 2.95643,1.66189l1.10021,-1.02922c0.60587,-0.56703 0.92674,-0.84059 1.36763,-1.11104c0.9166,-0.56222 1.91636,-0.71501 2.75956,-0.01007c2.75308,1.84122 4.31102,2.97107 5.07426,3.71254c1.48869,1.4462 1.29359,3.67235 0.00846,4.9423c-0.44564,0.44037 -1.0107,0.96897 -1.67807,1.5705c-3.8251,3.57827 -11.67493,1.70273 -18.04286,-3.70235l-6.9367,6.48551l-2.03061,-1.89853l28.71697,-26.84906l2.03061,1.89853l-15.32589,14.32899l0.00001,0zm-4.42148,4.13389c5.34686,4.48708 11.55047,5.97773 13.99924,3.68727c0.65699,-0.59248 1.19237,-1.09331 1.60446,-1.50053c0.29777,-0.29425 0.35098,-0.90143 0.00845,-1.23419c-0.57051,-0.55423 -1.96726,-1.57243 -4.37899,-3.1917c-0.17579,0.13229 -0.3919,0.32418 -0.72533,0.63623l-1.10043,1.02942c-1.65454,1.54778 -4.33797,0.55946 -7.02986,-1.64939l-2.37752,2.22287l0,0.00001zm0.87489,-8.08631l-2.11176,1.9744c-1.15655,-1.79992 -1.40565,-3.45769 -0.18834,-4.59573c0.29703,-0.27768 0.66367,-0.62067 1.09989,-1.02891c0.17601,-0.16472 0.25651,-0.24103 0.35316,-0.33598c0.13165,-0.12939 0.23985,-0.24301 0.32647,-0.34356c-1.67329,-2.17926 -2.81076,-3.54097 -3.42397,-4.10732c-0.31667,-0.2925 -1.0258,-0.23864 -1.28612,0.0012c-0.69431,0.63962 -0.92253,0.85289 -1.64284,1.53688c-2.12555,1.98839 -1.17218,6.67436 2.30911,11.16652l-2.05378,1.92019c-4.45732,-5.54897 -5.71377,-11.77751 -2.29241,-14.97807c0.72324,-0.68681 0.96169,-0.90964 1.66605,-1.55854c1.3114,-1.20812 3.80227,-1.39728 5.31646,0.0012c0.79646,0.73561 2.06624,2.26309 3.95433,4.73318c0.84135,0.87197 0.57458,1.85981 -0.16933,2.79712c-0.17638,0.22223 -0.37968,0.44118 -0.62523,0.68246c-0.11785,0.11581 -0.20975,0.20291 -0.40198,0.38281c-0.43656,0.40856 -0.80353,0.75185 -1.10096,1.02991c-0.05173,0.04837 0.0418,0.31613 0.27126,0.72221l0,0.00002z" fill-rule="evenodd"/>
 </g>

</svg>