<svg width="40" height="40" xmlns="http://www.w3.org/2000/svg" fill="#ffffff">
 <g>
  <title>Layer 1</title>
  <path d="m19.99998,23.55805c2.47024,0 4.44939,-1.90707 4.44939,-4.26967l0.01489,-8.53947c0,-2.36258 -1.99404,-4.26974 -4.46428,-4.26974c-2.47024,0 -4.46428,1.90716 -4.46428,4.26974l0,8.53947c0,2.36259 1.99404,4.26967 4.46428,4.26967zm-1.78571,-12.95145c0,-0.93934 0.80357,-1.70789 1.78571,-1.70789c0.98214,0 1.78571,0.76855 1.78571,1.70789l-0.01489,8.82412c0,0.93934 -0.78868,1.70789 -1.77083,1.70789c-0.98214,0 -1.78571,-0.76855 -1.78571,-1.70789l0,-8.82412l0.00001,0zm9.67253,8.68179c0,4.26967 -3.77968,7.25848 -7.88681,7.25848c-4.10714,0 -7.88689,-2.98882 -7.88689,-7.25848l-2.52977,0c0,4.85323 4.04763,8.86678 8.92856,9.56414l0,4.66831l2.9762,0l0,-4.66831c4.88093,-0.68316 8.9286,-4.69671 8.9286,-9.56414l-2.52988,0l-0.00001,0z" id="svg_1" stroke="null"/>
  <line id="svg_2" y2="9.62504" x2="32.74994" y1="32.37494" x1="5.25006" stroke="null" fill="none"/>
  <line stroke-width="3" stroke="#ffffff" id="svg_4" y2="6.5" x2="34.875" y1="33.5" x1="5.125" fill="none"/>
 </g>

</svg>