<svg width="128" height="50" xmlns="http://www.w3.org/2000/svg" xml:space="preserve" version="1.1">

 <g>
  <title>Layer 1</title>
  <g transform="rotate(0.0201889 32.7502 25.1253)" stroke="null" id="svg_1">
   <path stroke="null" id="svg_2" fill="#ffffff" d="m21.56167,27.69591c0.14737,0.04576 0.29948,0.06895 0.45209,0.06895l0.00017,0c0.32958,0 0.65053,-0.11047 0.90342,-0.3101c0.54975,-0.43401 0.80974,-1.169 0.40813,-3.4905c-0.35545,-2.05841 -0.90605,-3.13645 -1.84067,-3.60403c-0.20461,-0.10253 -0.42132,-0.17093 -0.6458,-0.20388c0.0071,-3.83661 1.42088,-7.38207 3.88815,-9.7402c2.10751,-2.01509 4.88162,-3.07968 8.02285,-3.07968c3.14123,0 5.91559,1.06459 8.02311,3.07968c2.46728,2.35813 3.88105,5.90296 3.88815,9.7402c-0.22448,0.03294 -0.44119,0.10135 -0.6458,0.20388c-0.93462,0.46759 -1.48505,1.54562 -1.84067,3.60403c-0.15194,0.87903 -0.21434,1.55906 -0.19024,2.07493c-0.72714,0.36199 -2.02803,0.81063 -4.1911,0.98463c-0.34082,-0.52805 -0.94857,-0.85277 -1.6063,-0.85277l-1.24788,0c-1.03769,0 -1.88185,0.785 -1.88185,1.75012c0,0.96513 0.84415,1.75012 1.88185,1.75012l1.24788,0c0.73407,0 1.39382,-0.3925 1.70319,-1.00664c1.96733,-0.15198 3.59112,-0.52805 4.82869,-1.11955c0.23125,0.14404 0.49496,0.21976 0.76738,0.21976c0.1538,0 0.30607,-0.02319 0.45243,-0.06895c0.99533,-0.30829 3.09447,-2.41797 3.22984,-6.97313c0.13883,-4.66438 -1.53493,-9.01504 -4.59229,-11.93778c-2.59182,-2.4778 -5.98974,-3.78778 -9.82632,-3.78778c-3.83641,0 -7.23433,1.30998 -9.82632,3.78778c-3.05719,2.92282 -4.73104,7.27341 -4.59221,11.93778c0.13545,4.55517 2.23459,6.66484 3.23009,6.97313z" class="st0"/>
   <path stroke="null" id="svg_3" fill="#ffffff" d="m49.3836,40.93148c-0.31774,-1.62314 -1.46983,-3.00334 -3.08712,-3.695l-6.76812,-2.57184c-1.07904,-0.4609 -1.77633,-1.47234 -1.77633,-2.57671l0,-0.50729l-0.1784,0.0574c-0.45446,0.14656 -0.92084,0.22039 -1.38646,0.22039l-1.24788,0c-2.33462,0 -4.23405,-1.76601 -4.23405,-3.93733c0,-2.17069 1.89943,-3.93678 4.23405,-3.93678l1.24788,0c0.8713,0 1.70826,0.24602 2.42052,0.7118l0.04498,0.02933l0.05411,-0.00857c1.49012,-0.22833 2.17676,-0.59095 2.43675,-0.76731l0.44508,-0.60494c0.43569,-1.30212 0.65662,-2.52482 0.65662,-3.63399c0,-5.87309 -3.99333,-10.13577 -9.49522,-10.13577c-5.5018,0 -9.49497,4.26276 -9.49497,10.13577c0,4.85968 4.24445,10.18278 4.2677,10.20173c0.14949,0.40351 0.22533,0.82407 0.22533,1.24897l0,0.92668c0,1.10429 -0.69737,2.11518 -1.77108,2.57428l-6.77843,2.57663c-1.61289,0.68923 -2.76515,2.07005 -3.08365,3.70538l-0.35917,4.30915l33.98898,0l-0.36112,-4.32196z" class="st0"/>
  </g>
  <text font-weight="bold" stroke="null" xml:space="preserve" text-anchor="start" font-family="'Arial'" font-size="14" id="svg_6" y="30.49992" x="56.0001" stroke-width="0" fill="#ffffff">Web Call</text>
 </g>
</svg>